<?xml version="1.0" encoding="UTF-8"?>
<svg version="1.1" viewBox="0 0 951.6 507.33" xmlns="http://www.w3.org/2000/svg" xmlns:cc="http://creativecommons.org/ns#" xmlns:dc="http://purl.org/dc/elements/1.1/" xmlns:rdf="http://www.w3.org/1999/02/22-rdf-syntax-ns#">
 <metadata>
  <rdf:RDF>
   <cc:Work rdf:about="">
    <dc:format>image/svg+xml</dc:format>
    <dc:type rdf:resource="http://purl.org/dc/dcmitype/StillImage"/>
    <dc:title/>
   </cc:Work>
  </rdf:RDF>
 </metadata>
 <g transform="translate(-166 -24.563)">
  <path d="m603.2 530.93c-133.39-4.2224-260.57-39.749-342.24-95.6-13.135-8.9825-39.879-31.832-48.629-41.547-22.031-24.461-35.073-47.071-41.275-71.549-8.3399-32.92-5.3607-61.211 9.6718-91.844 12.021-24.497 26.554-43.378 47.573-61.807 28.903-25.342 63.973-46.714 105.19-64.103l12.481-5.2658 3.8443-7.4468c8.7261-16.903 25.342-34.224 42.135-43.922 9.9972-5.7736 25.225-11.589 38.027-14.524 8.2858-1.8991 13.278-2.3955 27.869-2.7713 24.1-0.62073 36.423 1.0968 61.708 8.6008 10.892 3.2325 11.218 3.2729 13.977 1.7304 21.714-12.141 51.56-17.966 77.467-15.12 19.77 2.1724 34.763 7.2775 53.26 18.135l9.2015 5.4012 18.415 1.3568c72.684 5.3552 140.72 18.605 196.27 38.222l10.13 3.5773 8.1819-3.0881c13.682-5.1638 26.527-7.5954 43.222-8.182 13.333-0.46845 15.292-0.33508 20.79 1.4149l6.0701 1.9321 10.787-4.7798c13.598-6.0253 23.514-8.1595 35.828-7.7112 15.91 0.57917 25.345 6.2465 38.568 23.166 8.6668 11.089 14.554 15.523 24.148 18.184 15.004 4.1622 22.677 9.7155 28.478 20.61 2.3323 4.3801 2.7828 6.4696 2.7828 12.908 0 6.4238-0.4523 8.5317-2.7606 12.866-1.5183 2.8511-3.9476 6.5424-5.3984 8.2029-1.9341 2.2137-2.9384 4.9296-3.7646 10.181-2.1072 13.393-9.0945 27.677-20.776 42.474-2.7746 3.5142-5.0446 6.6662-5.0446 7.0046 0 0.33837 0.9255 0.61521 2.0567 0.61521 2.3623 0 3.6914 2.3362 8.9252 15.687 6.2437 15.927 8.109 26.664 8.109 46.676 0 14.652-0.3921 19.336-2.3251 27.772-7.3333 32.007-27.45 63.136-59.549 92.147-28.473 25.735-62.035 46.524-104.75 64.887-93.069 40.009-207.53 59.343-328.65 55.509zm65.161-12.573c98.145-4.0261 187.03-23.005 261.42-55.818 33.772-14.897 58.08-29.316 84.897-50.357 6.4216-5.0388 12.106-8.5275 18.289-11.224 4.9343-2.152 11.224-5.7104 13.977-7.9076l5.0054-3.9949-6.2119 3.5462c-10.82 6.1766-23.158 10.658-36.748 13.346-13.326 2.6366-53.295 2.5437-86.487-0.20088l-6.2431-0.51624-3.5925 4.6434c-4.1566 5.3725-11.564 9.9941-22.836 14.249-18.428 6.9552-39.372 9.7186-73.403 9.685l-24.315-0.0241-2.2372 2.321c-3.1713 3.2902-10.152 6.0968-21.294 8.5612-18.557 4.1045-30.788 5.2439-61.171 5.6986l-28.764 0.43054-1.4127 2.3849c-2.2677 3.8283-4.737 5.2181-13.531 7.6158-15.45 4.2126-34.629 6.9268-62.011 8.7762-39.936 2.6972-79.614-1.277-100.44-10.06-4.0815-1.7212-9.0803-2.8923-15.012-3.5169-38.121-4.0142-74.713-13.51-104.33-27.075-41.382-18.952-68.851-43.665-80.541-72.46-2.4523-6.0407-3.4137-7.2903-7.6272-9.914-14.396-8.9644-34.965-29.942-38.484-39.249-2.0411-5.399-0.81958-14.649 2.6747-20.253 3.6876-5.9148 14.944-15.175 27.562-22.675 5.3008-3.1507 9.9223-6.0925 10.27-6.5375 0.3477-0.44494-0.99003-5.1472-2.9727-10.45-3.1615-8.4548-3.6213-10.863-3.7382-19.583-0.12249-9.1386 0.0774-10.245 2.4736-13.691 6.0338-8.6779 18.124-14.298 36.657-17.041 5.0817-0.75196 9.4362-1.539 9.6768-1.749s-0.86561-3.1556-2.4582-6.5459c-2.4095-5.1294-2.9042-7.5294-2.9472-14.298-0.0654-10.302 2.332-16.532 8.4188-21.879 5.5884-4.9093 22.075-11.881 39.432-16.674 19.014-5.2506 17.841-4.6706 17.841-8.8188 0-9.5276 5.4959-23.149 12.562-31.133 5.0412-5.6965 14.069-12.029 22.122-15.516 18.842-8.1597 53.503-5.5876 77.598 5.7583l7.9754 3.7555 30.383-0.0263 5.3838-4.8079c5.6664-5.0603 13.591-9.1799 23.088-12.002 4.497-1.3364 8.7418-1.6922 20.189-1.6922 14.069 0 14.692 0.08224 21.224 2.8002 3.7013 1.5401 10.523 5.4039 15.159 8.5863 26.73 18.348 42.717 28.268 49.808 30.909 3.93 1.4633 52.853 7.7049 79.46 10.138 18.683 1.7081 55.565 1.7184 69.884 0.0195 23.735-2.8161 36.438-7.212 47.741-16.521 3.9683-3.268 6.8468-6.2455 6.3966-6.6166-1.0408-0.85806-28.329-9.2074-43.267-13.238-39.898-10.766-83.617-18.714-125.27-22.773-16.753-1.6324-43.697-3.698-48.236-3.698-0.96271 0-5.878-2.3647-10.923-5.255-26.385-15.116-40.712-18.94-67.15-17.924-20.597 0.79205-35.071 4.8096-52.223 14.496-4.0549 2.2899-8.4534 4.1635-9.7744 4.1635-1.321 0-4.6842-1.0609-7.4738-2.3575-7.3735-3.4272-24.374-8.1925-34.973-9.8028-18.366-2.7905-44.97-1.4762-61.207 3.0239-29.226 8.0999-53.784 27.869-64.813 52.173l-3.5185 7.7537-11.558 4.7831c-39.286 16.258-76.822 38.469-102.36 60.567-32.868 28.443-51.101 55.658-59.662 89.049-2.1224 8.2784-2.4234 11.794-2.3973 27.996 0.0254 15.752 0.37208 19.86 2.314 27.42 15.109 58.814 69.7 109.88 158.13 147.91 89.09 38.316 209.73 58.071 325.61 53.317zm-56.419-60.1c20.614-2.1014 47.661-6.9608 53.572-9.6252 2.9322-1.3216 2.176-2.2266-4.659-5.5762-10.688-5.2376-19.499-12.76-12.942-11.048 12.993 3.3912 28.207 6.03 40.14 6.9621 35.07 2.7391 94.237-5.5205 94.187-13.148-3e-3 -0.54432-1.4644-1.7141-3.2462-2.5996-1.7818-0.88545-3.0041-1.8156-2.7162-2.0669 0.28792-0.25135 6.99 0.0157 14.894 0.5936 8.5222 0.62307 23.639 0.85685 37.147 0.5745 31.178-0.65169 50.816-4.0604 64.444-11.186l4.9231-2.5741-27.954-0.63436c-15.375-0.34891-35.408-1.2956-44.519-2.1038-15.016-1.332-17.727-1.3406-28.989-0.0921-10.97 1.2161-22.89 2.2793-41.931 3.7399-16.074 1.233-76.209 3.1419-99.21 3.1492l-26.219 8e-3 -7.4286 4.2046c-24.501 13.868-53.85 24.116-90.131 31.472-8.4737 1.718-15.624 3.313-15.889 3.5444-1.4614 1.2757 24.308 6.202 37.507 7.1702 12.512 0.91779 46.888 0.47295 59.02-0.76373zm-115.88-16.776c14.285-1.2308 32.181-4.4878 48.965-8.9115 27.681-7.2958 44.444-13.709 64.324-24.61l11.906-6.5288 47.107-0.14232c49.487-0.14953 73.046-1.0178 112.33-4.1398 24.502-1.9471 42.071-1.9405 63.155 0.0237 5.1248 0.47746 24.729 0.89701 43.564 0.93234 29.917 0.0561 72.066 1.6999 84.92 3.3118 14.456 1.8128 50.944-8.327 69.35-19.272 14.809-8.8059 22.976-20.244 20.21-28.304-1.9177-5.5879-7.0387-5.7769-19.736-0.72832-11.596 4.6106-38.021 9.6229-68.375 12.969-36.032 3.972-103.22 2.193-134.33-3.5568-12.375-2.2872-32.252-8.3108-51.223-15.523-37.786-14.365-44.034-16.591-52.617-18.749-11.515-2.8948-24.638-3.7297-38.064-2.4219-21.649 2.1088-31.965 5.6573-68.854 23.685-26.49 12.946-53.199 24.818-58.661 26.075-6.4772 1.4909-20.073 1.2628-27.459-0.4607-9.6899-2.2611-16.044-5.1486-32.523-14.78-23.529-13.752-35.56-17.074-58.531-16.162-24.645 0.97822-37.955 5.1756-52.294 16.491-10.266 8.1016-13.629 9.9872-20.051 11.244-7.8434 1.5345-11.064-1.124-12.546-10.358-0.39914-2.4855-2.9726-8.7896-5.7187-14.009-6.7243-12.781-8.6839-20.242-8.1444-31.01 0.41261-8.2356 0.61988-8.8514 6.3297-18.804 6.6535-11.598 20.799-28.761 25.121-30.481 5.6453-2.2455 4.9853 0.26407-3.6042 13.703-14.913 23.334-16.549 27.842-14.09 38.82 0.80478 3.5922 2.3621 8.7682 3.4608 11.502 2.2249 5.537 10.443 20.617 11.565 21.223 0.7842 0.42311 15.944-9.8385 18.994-12.857 1.5718-1.5556 1.7113-2.4292 0.85235-5.3389-0.56486-1.9134-1.5478-7.8603-2.1844-13.215-3.672-30.891 13.129-58.574 42.936-70.743 9.8473-4.0204 17.836-5.7584 29.507-6.4196 17.41-0.98624 32.351 1.5493 69.77 11.84 11.566 3.1808 24.627 6.2201 29.024 6.7539 16.878 2.0493 42.001 0.65043 57.307-3.191 11.955-3.0005 43.535-18.41 75.812-36.992 20.485-11.794 25.459-14.16 36.236-17.238 7.9279-2.2644 10.237-2.5132 23.295-2.5102 15.659 3e-3 15.935 0.0535 59.531 10.762 18.591 4.5666 28.716 5.9362 43.569 5.8938 20.906-0.0597 27.648-2.1849 81.332-25.636 28.082-12.267 43.816-18.278 52.562-20.078 7.6964-1.5846 31.996-1.7434 49.154-0.32122 15.426 1.2785 22.186 6e-3 32.52-6.12 15.586-9.2398 22.066-22.003 16.237-31.978-2.9479-5.0444-12.025-11.014-25.601-16.837-13.244-5.6803-16.66-8.3104-25.199-19.396-6.1566-7.9931-9.0415-10.348-15.392-12.564-4.8939-1.7074-16.06-1.4759-22.878 0.4745-6.7231 1.9233-17.12 6.3557-18.076 7.7061-0.9599 1.3559 18.907 20.474 26.566 25.564 5.4508 3.6227 8.7623 4.1971 16.695 2.8958 3.7802-0.62015 8.1043-0.92209 9.6089-0.67098 2.3527 0.39261 2.6563 0.80361 2.1682 2.9344-0.3347 1.4607 0.035 3.1728 0.901 4.1708 3.1219 3.5989 2.0697 4.2488-6.0145 3.7151-15.229-1.0054-32.933-9.076-52.141-23.768-6.3293-4.8413-14.055-9.815-17.705-11.398l-6.4759-2.8089-14.231 0.50927c-29.948 1.0717-54.007 10.651-78.555 31.279-6.0106 5.0505-13.788 10.878-17.284 12.95-8.9804 5.3238-25.548 11.116-25.548 8.932 0-0.46519 3.6126-3.0557 8.028-5.7566 8.4274-5.1552 18.448-13.1 17.532-13.9-0.29566-0.25812-5.1193 0.16209-10.719 0.93378-17.763 2.4478-38.227 3.4793-56.253 2.8355-16.662-0.59507-26.032-1.606-75.061-8.0985-30.969-4.101-48.42-5.646-78.167-6.9206l-24.33-1.0425-9.8356-3.8945c-15.668-6.2039-36.872-10.861-53.885-11.834l-10.618-0.60747 1.9684 2.9511c3.3105 4.9634 17.971 16.37 31.272 24.332 6.9446 4.1568 12.626 7.9182 12.626 8.3586 0 1.8063-6.2981 0.58988-14.032-2.71-10.181-4.3444-18.602-9.5756-37.217-23.121-16.858-12.266-22.719-15.809-32.931-19.903-9.4822-3.8013-17.476-5.2195-29.188-5.1779-16.505 0.05857-31.2 4.4554-41.706 12.479-9.9865 7.6263-14.107 16.974-14.107 32.003 0 10.473 1.6333 16.658 6.7231 25.46 1.6597 2.8701 3.0176 5.6368 3.0176 6.148 0 1.789-2.8166 0.89976-8.598-2.7143l-5.8291-3.6439-2.4808 3.4306c-7.0043 9.6862-11.046 19.629-11.046 27.174 0 6.6032 3.5716 15.61 8.8681 22.364 2.5568 3.2603 4.3926 6.2897 4.0794 6.7321-1.0144 1.4328-6.0464-0.79638-12.255-5.429-3.3203-2.4775-6.5297-4.5046-7.1319-4.5046-2.9903 0-20.176 11.389-29.938 19.841-30.791 26.657-48.007 67.098-46.152 108.41 1.1095 24.706 7.7216 38.132 29.292 59.477 7.9342 7.8512 23.531 18.703 35.838 24.934 16.762 8.487 35.252 14.908 56.225 19.524 24.363 5.3624 40.364 6.5115 63.234 4.541zm-26.232-242.11c-8.709-1.2074-12.421-4.2758-9.7011-8.0201 1.1324-1.5591 7.5329-2.8234 14.43-2.8505 5.7117-0.0224 14.697-1.6215 14.69-2.6144-2e-3 -0.31381-1.993-1.2844-4.4241-2.157-11.443-4.1068-20.271-14.83-22.599-27.448-1.1328-6.1415-0.0936-20.877 1.7715-25.12 0.88238-2.0074-2.4234-1.8601-8.0211 0.35724-5.6065 2.2209-9.3987 2.3018-11.513 0.2458-2.7457-2.6696-1.0231-6.4552 5.3516-11.76 8.2912-6.9001 16.238-10.157 24.782-10.157 10.23 0 14.209 2.0729 28.633 14.916 25.471 22.68 39.722 29.173 61.337 27.949 12.306-0.69724 15.795 0.38534 15.795 4.9004 0 3.7509-3.9216 6.3619-12.423 8.2708-6.9772 1.5668-8.0308 2.151-15.902 8.8182-13.856 11.737-27.882 18.899-44.666 22.807-9.2476 2.1536-28.538 3.1105-37.542 1.8624zm55.473-26.626c4.6349-2.0504 10.54-6.8707 10.54-8.6037 0-0.38495-3.1448-1.9703-6.9884-3.5231s-7.7544-3.3126-8.6907-3.9108c-1.4232-0.90936-2.474-0.49469-6.4095 2.5295-4.8726 3.7442-10.469 5.743-16.08 5.743-4.3464 0-4.1773-1.4689 0.89661-7.7922 5.5321-6.8942 5.4945-9.5486-0.19572-13.813-5.3122-3.9808-14.311-9.1249-15.963-9.1249-2.2422 0-4.8533 7.5371-5.3394 15.412-0.40435 6.5509-0.13076 8.4325 1.7941 12.339 1.2491 2.5349 3.2818 5.4247 4.517 6.4218 8.9441 7.2199 30.374 9.4296 41.919 4.3225zm385-20.387c-4.6092-1.2811-5.8869-2.6949-5.8869-6.5136 0-4.7932 1.9974-7.8412 8.4984-12.968 7.9926-6.3035 21.178-11.604 29.941-12.036 9.2588-0.45672 13.706 0.98024 20.866 6.7425 8.3093 6.6873 13.268 8.9944 24.045 11.188 10.807 2.1995 13.97 3.714 13.97 6.6877 0 3.0833-2.2366 4.2596-9.1376 4.8059-11.798 0.9339-26.739-2.6881-37.996-9.2106-3.0259-1.7533-5.765-3.1879-6.087-3.1879-0.32194 0-3.8641 2.2115-7.8713 4.9144-12.377 8.3484-22.86 11.658-30.342 9.5781zm-350.49 214.23c3.2218-0.4607 8.2302-1.7286 11.13-2.8175 5.0203-1.8853 5.272-2.1443 5.272-5.4248 0-4.9504-2.5376-14.775-5.8026-22.464-3.3107-7.7974-9.2233-13.956-12.945-13.483-2.0676 0.26285-2.5081 1.1424-3.7202 7.4279-2.0263 10.507-4.3743 14.33-13.249 21.572-4.2721 3.4859-7.7674 6.8175-7.7674 7.4035 0 2.8893 7.704 6.8623 15.53 8.0088 4.4795 0.65627 5.5492 0.63565 11.552-0.22275zm32.551-10.049c12.571-6.279 22.064-21.124 25.241-39.474 1.8302-10.569 3.1298-13.766 5.8366-14.359 5.0266-1.1014 14.403 3.3917 28.117 13.473l8.7109 6.4036 11.033-3.3738c8.8436-2.7044 11.918-4.1276 15.494-7.1734 6.7563-5.7544 11.601-15.063 12.879-24.747 0.69225-5.2452 1.6048-8.3612 2.6662-9.1043 5.2568-3.6804 17.653 1.5447 29.632 12.49 8.9171 8.1479 14.419 15.024 20.959 26.195 4.7424 8.0999 4.8876 8.2396 8.0004 7.6961 9.9173-1.7315 23.016-12.583 30.143-24.97 2.5333-4.4035 5.6114-8.476 6.8402-9.0501 3.3639-1.5716 9.5848 0.37356 12.738 3.9831 6.5865 7.5385 12.546 24.947 13.666 39.918 0.97702 13.061 0.28638 12.426 10.657 9.8057 9.9068-2.5029 22.757-7.8915 31.07-13.029 12.019-7.4281 25.934-21.197 24.697-24.437-0.19251-0.50417-8.261-3.89-17.93-7.5241-9.669-3.6341-23.171-8.9342-30.004-11.778-31.343-13.045-77.29-26.607-90.404-26.684-1.321-8e-3 -4.4709 1.2286-6.9999 2.7476-12.411 7.4544-20.731 7.0866-23.233-1.0269-1.3852-4.4907-2.7792-4.9942-16.112-5.8194l-10.293-0.63705-1.3381 4.3944c-2.5217 8.2815-8.6559 17.5-16.489 24.78-8.1719 7.5945-12.46 9.8926-18.458 9.8926-6.4388 0-7.689-1.748-7.6958-10.76-6e-3 -8.6202-1.1666-13.378-4.0094-16.443l-1.893-2.0408-5.4853 1.7426c-3.0169 0.95841-5.8289 2.3526-6.249 3.0983s-2.7522 5.0038-5.1826 9.4626c-3.533 6.4816-5.9274 9.4068-11.943 14.59-12.201 10.514-27.885 16.024-32.972 11.583-2.0405-1.7813-2.1003-1.0592 0.96137-11.596 2.5205-8.674 3.2647-16.027 1.9294-19.065-0.36239-0.82438-1.8383-1.8903-3.2797-2.3688-2.255-0.74845-3.1386-0.44097-6.3296 2.2027-11.046 9.151-28.727 18.828-40.226 22.016-9.44 2.617-13.802 2.6836-16.326 0.24924-2.1555-2.0793-2.0941-2.3662 3.4692-16.229 1.6957-4.2254 3.2488-9.5127 3.4512-11.75l0.36812-4.0672-6.5414-2.8116c-5.4134-2.3267-19.135-5.7747-22.982-5.7747-1.4499 0-7.6783 11.215-10.217 18.398-1.2046 3.4078-2.1902 8.0962-2.1902 10.419 0 2.443-0.71231 5.1106-1.6901 6.3292-1.524 1.8994-2.3124 2.0697-8.0238 1.7328-8.4069-0.49594-13.346-2.6923-20.848-9.2702-5.5512-4.8675-9.8869-11.013-13.569-19.235l-0.90513-2.0208-5.1766 2.1173c-10.298 4.2118-19.595 15.505-23.907 29.039-2.2815 7.1606-3.1365 28.821-1.4767 37.412l1.2411 6.4236h5.486c6.8839 0 9.215-1.6517 10.842-7.6824 2.1286-7.8886 8.0052-17.287 14.337-22.929 6.9323-6.1772 12.044-8.1263 16.462-6.2775 2.4253 1.0148 3.4303 2.7319 6.68 11.413 2.1039 5.6201 4.6199 11.313 5.5912 12.65 2.5725 3.5428 6.8778 7.4031 8.2565 7.4031 0.65699 0 1.7511-2.171 2.4313-4.8246 3.3218-12.958 13.435-24.098 21.876-24.098 5.7371 0 7.2383 1.7437 7.253 8.4249 0.0213 9.6983 4.5028 20.309 13.532 32.04 4.8298 6.2749 5.7493 6.4559 12.008 2.3641 6.5262-4.2665 9.4843-9.5678 11.68-20.932 0.69851-3.6152 1.9582-7.1739 2.7994-7.9082 2.2044-1.9244 5.9184-1.6486 11.591 0.86061 8.9919 3.9778 14.17 12.197 18.494 29.357 1.9604 7.7787 3.1823 10.927 4.2408 10.927 0.81782 0 3.9758-1.2431 7.0178-2.7625zm372.39-0.97114c6.8084-1.3321 6.4379-0.72928 7.9818-12.987 2.4269-19.269 0.20554-29.847-5.8973-28.081-1.0238 0.29624-3.5834 2.9003-5.688 5.7868-7.8662 10.789-26.192 25.676-39.903 32.418-3.7609 1.849-5.3382 3.0623-4.3717 3.3626 5.2195 1.6218 38.829 1.2716 47.879-0.49892zm-63.164-3.045c1.4733-4.2057 2.1786-33.908 0.87466-36.831-1.6068-3.6014-3.858-3.0681-7.6309 1.8076-8.7385 11.293-25.237 22.483-43.107 29.238-5.759 2.1768-10.471 4.2014-10.471 4.499 0 0.29767 5.2413 1.2169 11.647 2.0428 6.4061 0.82588 12.812 1.6549 14.236 1.8424s9.5437 0.28941 18.045 0.22664l15.457-0.11412zm-382.1-4.7955c-1.1058-1.8364-3.7179-6.0558-5.8048-9.3766-5.5843-8.8861-7.8737-15.441-7.8737-22.542 0-5.1796-0.32007-6.303-2.0225-7.0984-2.6994-1.2612-7.9015 2.6754-11.801 8.9303-2.8464 4.5655-6.3669 16.58-5.4617 18.64 0.26491 0.60267 5.4477 3.3903 11.517 6.1947 6.0696 2.8044 13.678 6.6757 16.908 8.6028 5.3048 3.1652 5.905 3.334 6.2108 1.7463 0.18613-0.96666-0.56631-3.26-1.6721-5.0964zm480.39 3.6038c0.40367-0.34766 1.5008-3.2451 2.438-6.4387 2.2216-7.5703 1.6639-16.28-1.2614-19.7-3.4003-3.9759-6.2818-3.302-11.498 2.6891-4.2101 4.8355-4.578 5.7172-5.4685 13.105-1.6203 13.443-2.2889 12.339 7.0322 11.607 4.413-0.34671 8.354-0.91484 8.7578-1.2625zm27.214-4.13c5.3619-2.5135 7.2017-5.8921 7.1915-13.207-0.014-10.016-5.2166-15.111-9.4588-9.2641-0.9919 1.367-3.7596 4.617-6.1506 7.2221-3.3057 3.6016-4.74 6.2432-5.9856 11.024-0.901 3.4582-1.6381 6.5159-1.6381 6.795 0 1.1735 12.238-0.78757 16.042-2.5706zm-99.903-5.837c7.1988-4.4425 17.747-13.223 21.533-17.924l2.3129-2.8718-2.3465-0.65544c-1.2905-0.36049-9.3349-2.1742-17.876-4.0304-8.5414-1.8562-16.393-3.6838-17.447-4.0613-1.8045-0.64592-1.8797-0.2398-1.2778 6.9022 0.53204 6.3126 1.5603 24.432 1.6245 28.626 0.0234 1.5281 4.5852-0.49772 13.477-5.9848zm146.8-2.1727c3.5299-7.4904 5.4666-13.255 8.1227-24.177 2.5823-10.618 2.6125-36.928 0.055-48.084-3.5667-15.56-9.6228-31.452-11.986-31.452-0.4729 0-3.0777 1.4784-5.7886 3.2853-6.7019 4.4673-16.975 9.0366-21.976 9.7741-3.7841 0.55812-4.3078 0.99546-6.355 5.3073-2.1944 4.6219-2.2019 4.8102-0.46 11.468 2.2243 8.5019 2.566 38.433 0.5252 46.004-1.2172 4.5157-1.1616 5.0352 0.7266 6.7899 3.4347 3.1916 6.2078 9.8534 6.9315 16.651l0.6884 6.4658 6.8397 0.0277c4.8297 0.0196 8.5133 0.654 12.534 2.1586 3.1318 1.172 6.0002 2.1762 6.3742 2.2318 0.3738 0.0555 2.0694-2.8478 3.7677-6.4517zm-258.96-4.971c-0.71058-11.571-4.2891-25.637-8.3152-32.685-1.7829-3.121-2.956-4.146-4.7451-4.146-1.8888 0-2.7916 0.92222-4.3983 4.4928-4.5589 10.132-14.371 20.356-23.359 24.34-1.8506 0.82032-3.3648 1.6464-3.3648 1.8358 0 0.1894 3.6107 1.639 8.0238 3.2214 19.524 7.0005 25.855 9.4814 29.229 11.453 1.9828 1.1589 4.4999 2.107 5.5935 2.107 1.8851 0 1.9545-0.55139 1.3362-10.62zm-181.36 0.24559c5.1248-2.1417 11.564-4.7407 14.309-5.7756l4.9915-1.8817-1.8855-2.832c-3.4972-5.2527-20.323-17.097-24.288-17.097-1.3501 0-1.8753 1.225-2.4216 5.6489-0.9063 7.3386-4.0048 18.986-6.6936 25.162-1.1709 2.6894-2.1292 5.0146-2.1295 5.167-2.8e-4 0.15244 1.9795-0.79722 4.3996-2.1104s8.5932-4.1398 13.718-6.2815zm-185.49-0.50399c3.8948-0.51262 10.617-0.65237 14.937-0.31057l7.8559 0.62146-2.1219-2.6247c-4.0523-5.0124-7.6018-12.139-9.0502-18.171-1.3226-5.5082-3.3844-8.4049-5.9822-8.4049-1.6862 0-10.321 7.6416-12.789 11.318-3.217 4.7921-6.6613 13.522-6.6613 16.883 0 2.4446 0.21429 2.5794 3.3648 2.1159 1.8506-0.27224 6.5515-0.9144 10.446-1.427zm-147.43-28.506c0.8935-9.2893 4.8223-29.3 6.8448-34.863 0.33976-0.93451 0.10713-1.6738-0.52671-1.6738-2.036 0-21.722 11.629-27.148 16.037-5.6886 4.6215-10.143 11.669-10.143 16.048 0 6.5222 7.1352 15.584 20.537 26.084l7.9137 6.1996 0.73601-8.4591c0.40481-4.6525 1.2084-13.37 1.7858-19.373zm444.55 12.044c-6.5801-14.666-33.162-39.261-37.932-35.097-0.63255 0.55221-1.4615 4.1676-1.8421 8.0341-0.74094 7.5267-3.5364 14.41-8.4207 20.736l-2.9661 3.8412h11.82c13.031 0 26.867 1.7709 34.544 4.4212 6.816 2.3531 6.7354 2.3856 4.7965-1.9357zm-145.57-16.051c6.5983-3.3036 16.281-11.842 20.716-18.269 3.5009-5.0726 6.3683-12.868 5.1306-13.948-0.40926-0.35729-5.7432 0.0417-11.853 0.88648-6.11 0.84485-12.973 1.6325-15.25 1.7503-4.052 0.20961-4.1468 0.29219-4.3992 3.8295-0.54744 7.6751-2.574 18.125-3.9729 20.487-1.5424 2.6039-1.9365 6.3653-0.7733 7.3808 1.4387 1.256 5.1899 0.49254 10.402-2.117zm-54.163-11.595c5.7521-2.5105 12.917-6.4584 15.921-8.7731 7.927-6.1071 10.484-11.257 5.5892-11.257-0.97209 0-8.2418-1.4235-16.155-3.1634-7.9131-1.7398-14.485-3.1634-14.603-3.1634s-0.5122 1.9319-0.87459 4.2931c-0.36238 2.3612-3.1861 8.9621-6.2749 14.669-4.3709 8.0751-5.3537 10.651-4.433 11.62 2.0678 2.1751 9.726 0.62209 20.83-4.2243zm122.41-1.817c8.3664-6.0204 16.551-17.631 19.503-27.668 1.6889-5.7418 2.137-15.448 0.74783-16.198-0.46018-0.24828-3.8379 1.21-7.5061 3.2406s-10.862 5.4549-15.987 7.6096c-14.301 6.0127-13.186 4.6538-10.076 12.276 2.0032 4.91 2.7337 8.5772 2.8617 14.366 0.0945 4.2755 0.52611 8.274 0.95902 8.8855 1.1148 1.5746 5.3896 0.44369 9.4983-2.5128zm-188.15-0.27197c0.62514-1.5655 1.1366-4.4555 1.1366-6.4222 0-5.2512 2.7678-13.69 6.7602-20.611l3.5099-6.0844-3.0526-1.1038c-4.8666-1.7598-21.134-1.2912-28.974 0.83453-3.7094 1.0058-7.6504 2.407-8.7577 3.1139-1.9729 1.2594-1.9762 1.4229-0.16467 8.131 1.99 7.369 7.0645 15.131 13.201 20.193 4.0567 3.3462 7.3608 4.6571 11.941 4.7375 2.7548 0.0483 3.4407-0.38643 4.4001-2.789zm411.68-17.066c11.326-7.8675 20.902-19.392 26.337-31.696 3.3378-7.5557 6.4918-18.062 5.6444-18.802-0.27849-0.24312-3.8865 1.0367-8.0177 2.8441-8.9564 3.9184-20.54 7.321-31.522 9.259-11.332 1.9999-10.67 1.5144-8.8663 6.5077 1.74 4.8162 2.3757 23.241 1.043 30.229-0.64521 3.3835-0.45886 4.4856 0.96919 5.7323 2.6717 2.3323 6.9155 1.1324 14.412-4.0747zm68.066-1.0062c6.2066-2.7642 20.923-16.124 27.99-25.409 7.1651-9.4144 11.822-17.962 16.974-31.157 3.2926-8.4323 3.8089-10.882 3.8606-18.32l0.06-8.5863-4.7323 0.13245c-6.3029 0.17642-16.23 3.7242-32.539 11.628-7.4026 3.5877-15.091 6.9831-17.085 7.5453l-3.6262 1.0222-8e-3 21.921c-8e-3 17.271-0.40999 23.893-1.9074 31.214-1.0455 5.1109-1.6382 9.8899-1.3173 10.62 0.86439 1.9666 7.2537 1.6499 12.331-0.61122zm-146.82-7.5008c12.303-5.2548 24.63-14.952 29.603-23.288 3.0624-5.1333 2.6611-6.8131-1.882-7.8787-2.1354-0.50086-12.67-2.9801-23.41-5.5094-10.74-2.5293-19.725-4.4265-19.966-4.2159-0.24123 0.21058 0.0321 2.1651 0.60733 4.3434 1.4124 5.3482 1.3665 20.367-0.09 29.466-0.97305 6.079-0.93405 7.6978 0.21456 8.906 1.8801 1.9777 7.6831 1.2686 14.923-1.8235zm-73.436-1.299c5.6166-2.2272 14.278-10.876 18.664-18.636 3.6704-6.494 6.6052-16.378 6.637-22.352 0.0221-4.1446-1.8805-4.758-12.668-4.0842-6.3088 0.39406-8.9673 1.1752-18.888 5.55-6.3504 2.8002-12.855 6.284-14.455 7.7418l-2.9088 2.6504 4.2454 4.2104c5.3215 5.2776 8.4557 12.41 8.4557 19.242 0 7.6402 2.5814 8.9826 10.917 5.6773zm-423.1-8.9198c8.0113-13.847 16.921-24.884 29.207-36.183 3.9372-3.6209 7.1585-6.9876 7.1585-7.4817 0-2.489-32.604 3.0746-39.904 6.8093-2.696 1.3793-5.1717 3.6746-6.7311 6.2407-2.3606 3.8846-2.4148 4.3694-1.2606 11.282 1.0488 6.282 7.1128 24.53 8.1516 24.53 0.20461 0 1.7251-2.3386 3.3788-5.197zm693.11-1.2209c13.48-7.7946 32.065-31.93 41.15-53.441 4.8633-11.514 5.0638-11.322-12.655-12.168-16.232-0.775-15.856-0.96249-16.139 8.0513-0.414 13.168-5.7247 29.214-15.034 45.421-4.8082 8.3712-7.0876 13.649-6.2213 14.405 1.3267 1.1582 4.27 0.40782 8.8991-2.2689zm40.32-14.946c14.853-6.5566 39.043-35.783 41.976-50.715 1.0893-5.5466 0.2823-5.9407-5.1031-2.4926-4.9338 3.159-9.6895 4.976-13.061 4.9905-6.5012 0.0279-7.4315 0.74742-9.7624 7.5513-3.0435 8.8834-6.902 16.143-15.506 29.175-9.2602 14.025-8.9962 16.106 1.4576 11.491zm-682.15-38.258c11.197-7.6164 10.896-7.2615 11.565-13.616 0.79456-7.5418 4.5927-19.425 9.235-28.893 2.0197-4.1194 3.4582-7.6766 3.1966-7.905-0.70846-0.61847-22.995 6.8146-29.893 9.9697-14.523 6.6432-17.663 17.348-9.3205 31.771 3.0137 5.2101 8.3683 12.259 9.3126 12.259 0.34797 0 3.0045-1.6133 5.9034-3.5851zm286.91-90.885c-3.3321-1.7516-12.157-7.1072-19.61-11.901-7.4535-4.794-16.347-9.8504-19.764-11.236-15.172-6.155-30.618-4.9598-46.072 3.5652-6.5568 3.617-7.4926 2.8888 9.8356 7.6522 6.2637 1.7218 16.606 5.1889 22.983 7.7047l11.594 4.5741 16.877 1.0517c9.2824 0.57843 17.071 1.2144 17.308 1.4132 0.23726 0.19882 3.2382 0.36148 6.6687 0.36148h6.2373z" stroke="#000" stroke-width=".96734"/>
 </g>
</svg>
